<svg xmlns="http://www.w3.org/2000/svg" viewBox="0 0 25 25" height="25" width="25"><title>eating.svg</title><rect fill="none" x="0" y="0" width="25" height="25"></rect><rect x="0" y="0" width="25" height="25" rx="1.5" ry="1.5" fill="#ffffff"></rect><path fill="#aa186d" transform="translate(3 3)" d="m 9.4970695,2.4453532 c 0.02344,0.137695 0.471679,2.768547 0.471679,3.773427 0,1.5322223 -0.814451,2.6249927 -2.018549,3.0644446 l 0.377928,6.9755662 C 8.3486375,16.660158 8.0293005,17 7.6250045,17 h -1.874995 c -0.401366,0 -0.72363,-0.336912 -0.703123,-0.741209 L 5.4248155,9.2832248 C 4.2177875,8.8437729 3.4062665,7.7480729 3.4062665,6.2187802 c 0,-1.0078097 0.448241,-3.635732 0.471678,-3.773427 0.09375,-0.5947249 1.327145,-0.6035139 1.403317,0.032227 V 6.614287 c 0.03809,0.099609 0.442381,0.09375 0.468748,0 0.04102,-0.7412089 0.231445,-4.0781137 0.234375,-4.1542854 0.09668,-0.6093733 1.309566,-0.6093733 1.403316,0 0.0059,0.079101 0.193359,3.4130765 0.234374,4.1542854 0.02637,0.09375 0.433593,0.099609 0.468749,0 V 2.4775797 c 0.07617,-0.6328107 1.312497,-0.6269514 1.406246,-0.032227 z m 3.4921785,8.3700938 -0.439452,5.422837 C 12.514636,16.648439 12.839834,17 13.249989,17 h 1.640622 c 0.389646,0 0.703123,-0.313475 0.703123,-0.703122 V 2.703165 c 0,-0.3867177 -0.313477,-0.703123 -0.703123,-0.703123 -2.416987,0 -6.4863115,5.2294776 -1.901363,8.815405 z"></path></svg>