<svg xmlns="http://www.w3.org/2000/svg" viewBox="0 0 136 136" height="136" width="136"><title>eating.svg</title><rect fill="none" x="0" y="0" width="136" height="136"></rect><rect x="0" y="0" width="136" height="136" rx="5" ry="5" fill="#ffffff"></rect><path fill="#aa186d" transform="translate(8 8)" d="m 59.704984,3.5613961 c 0.187499,1.1015595 3.773426,22.1483759 3.773426,30.1874159 0,12.257778 -6.515606,20.999941 -16.148392,24.515556 l 3.023429,55.804532 c 0.164062,3.21093 -2.390618,5.92967 -5.624984,5.92967 H 29.728505 c -3.210929,0 -5.789047,-2.6953 -5.624985,-5.92967 L 27.126949,58.264368 C 17.470727,54.748753 10.978558,45.983153 10.978558,33.748812 c 0,-8.062478 3.585927,-29.0858564 3.773426,-30.1874159 0.749998,-4.7577992 10.617158,-4.8281115 11.226531,0.2578118 V 36.912866 c 0.304687,0.796872 3.539053,0.749997 3.74999,0 0.328124,-5.929671 1.851557,-32.6249094 1.874994,-33.2342827 0.773436,-4.8749864 10.476534,-4.8749864 11.226532,0 0.04687,0.6328107 1.54687,27.3046117 1.874994,33.2342827 0.210937,0.749997 3.468741,0.796872 3.74999,0 V 3.8192079 c 0.609373,-5.0624858 10.499971,-5.015611 11.249969,-0.2578118 z M 87.642406,70.522147 84.12679,113.90484 c -0.281249,3.28124 2.320306,6.09373 5.601547,6.09373 h 13.124973 c 3.11717,0 5.62498,-2.5078 5.62498,-5.62498 V 5.6238904 c 0,-3.0937414 -2.50781,-5.62498432 -5.62498,-5.62498432 -19.335893,0 -51.89049,41.83582092 -15.210904,70.52324092 z"></path></svg>