<svg xmlns="http://www.w3.org/2000/svg" viewBox="0 0 25 25" height="25" width="25"><title>education.svg</title><rect fill="none" x="0" y="0" width="25" height="25"></rect><rect x="0" y="0" width="25" height="25" rx="1.5" ry="1.5" fill="#ffffff"></rect><path fill="#aa186d" transform="translate(3 3)" d="M 16.586034,7.09065 10.048352,5.082052 c -0.3562511,-0.109453 -0.7406276,-0.109453 -1.0966449,0 L 2.4137906,7.09065 c -0.551721,0.169454 -0.551721,0.899064 0,1.068518 L 3.5535608,8.509325 C 3.3034817,8.818466 3.149731,9.195576 3.1344965,9.608545 2.9087925,9.73792 2.7498857,9.971359 2.7498857,10.250032 c 0,0.252656 0.1331255,0.465235 0.324845,0.601172 L 2.476369,13.54371 c -0.052032,0.234141 0.1260942,0.456328 0.3658608,0.456328 h 1.3150835 c 0.2400009,0 0.4181265,-0.222187 0.3660952,-0.456328 L 3.9250467,10.851204 c 0.1917195,-0.135937 0.324845,-0.348516 0.324845,-0.601172 0,-0.271173 -0.1516413,-0.498049 -0.3670327,-0.629768 C 3.900672,9.268232 4.0806722,8.956982 4.3677827,8.759638 l 4.58369,1.408361 c 0.2123448,0.06516 0.6196901,0.146485 1.0966453,0 l 6.537916,-2.008597 c 0.551955,-0.169688 0.551955,-0.899064 0,-1.068752 z m -6.317603,3.794304 c -0.6686745,0.205313 -1.2384422,0.09187 -1.5372714,0 L 5.3322398,9.840812 4.9998945,12.500036 c 0,0.828517 2.0146957,1.500002 4.500018,1.500002 2.4853225,0 4.5000185,-0.671485 4.5000185,-1.500002 L 13.667585,9.840577 Z"></path></svg>