<svg xmlns="http://www.w3.org/2000/svg" viewBox="0 0 136 136" height="136" width="136"><title>education.svg</title><rect fill="none" x="0" y="0" width="136" height="136"></rect><rect x="0" y="0" width="136" height="136" rx="5" ry="5" fill="#ffffff"></rect><path fill="#aa186d" transform="translate(8 8)" d="M 116.69326,39.17914 64.391813,23.11036 c -2.85001,-0.875626 -5.925022,-0.875626 -8.77316,0 L 3.3153253,39.17914 c -4.4137671,1.355627 -4.4137671,7.192513 0,8.54814 l 9.1181607,2.801257 c -2.000632,2.473129 -3.2306376,5.49001 -3.3525136,8.793764 -1.8056317,1.035 -3.0768866,2.90251 -3.0768866,5.13189 0,2.02125 1.0650041,3.72188 2.59876,4.80938 l -4.7868933,21.54004 c -0.4162517,1.87313 1.0087537,3.65063 2.9268862,3.65063 H 17.263506 c 1.920007,0 3.345012,-1.7775 2.928761,-3.65063 l -4.786894,-21.54004 c 1.533756,-1.0875 2.59876,-2.78813 2.59876,-4.80938 0,-2.16938 -1.21313,-3.98439 -2.936261,-5.03814 0.142501,-2.816254 1.582505,-5.306258 3.879389,-6.885011 l 36.669517,11.266891 c 1.698758,0.52126 4.95752,1.17188 8.77316,0 L 116.69326,47.729155 c 4.41564,-1.357502 4.41564,-7.192513 0,-8.550015 z M 66.152444,69.533571 c -5.349396,1.6425 -9.907537,0.735 -12.298171,0 l -27.191356,-8.35314 -2.658762,21.27379 c 0,6.62814 16.117564,12.00002 36.000141,12.00002 19.882577,0 36.000141,-5.37188 36.000141,-12.00002 l -2.658762,-21.27567 z"></path></svg>