<svg xmlns="http://www.w3.org/2000/svg" viewBox="0 0 136 136" height="136" width="136"><title>going_out.svg</title><rect fill="none" x="0" y="0" width="136" height="136"></rect><rect x="0" y="0" width="136" height="136" rx="5" ry="5" fill="#ffffff"></rect><path fill="#aa186d" transform="translate(8 8)" d="M 117.66851,13.5 C 122.64902,8.5171878 119.12165,0 112.07861,0 H 7.9213882 C 0.8783538,0 -2.6490228,8.5171878 2.3314923,13.5 L 52.499929,63.665626 V 108.75 H 39.374807 c -5.177392,0 -9.375086,4.19766 -9.375086,9.375 0,1.03594 0.839068,1.875 1.875017,1.875 h 56.250523 c 1.035946,0 1.875019,-0.83906 1.875019,-1.875 0,-5.17734 -4.197698,-9.375 -9.375088,-9.375 H 67.500069 V 63.665626 Z M 104.00901,11.25 92.758901,22.5 H 27.243445 L 15.993339,11.25 Z"></path></svg>