<svg xmlns="http://www.w3.org/2000/svg" viewBox="0 0 25 25" height="25" width="25"><title>going_out.svg</title><rect fill="none" x="0" y="0" width="25" height="25"></rect><rect x="0" y="0" width="25" height="25" rx="1.5" ry="1.5" fill="#ffffff"></rect><path fill="#aa186d" transform="translate(3 3)" d="M 16.708564,3.6875 C 17.331128,3.0646485 16.890206,2 16.009826,2 H 2.9901734 C 2.1097941,2 1.668872,3.0646485 2.2914364,3.6875 L 8.562491,9.9582032 V 15.59375 H 6.9218508 c -0.647174,0 -1.1718857,0.524707 -1.1718857,1.171875 C 5.7499651,16.895117 5.8548486,17 5.9843422,17 h 7.0313158 c 0.129493,0 0.234377,-0.104883 0.234377,-0.234375 0,-0.647168 -0.524712,-1.171875 -1.171886,-1.171875 H 10.437508 V 9.9582032 Z M 15.001126,3.40625 13.594863,4.8125 H 5.4054306 L 3.9991673,3.40625 Z"></path></svg>