<svg xmlns="http://www.w3.org/2000/svg" viewBox="0 0 136 136" height="136" width="136"><title>health.svg</title><rect fill="none" x="0" y="0" width="136" height="136"></rect><rect x="0" y="0" width="136" height="136" rx="5" ry="5" fill="#ffffff"></rect><path fill="#aa186d" transform="translate(8 8)" d="M 107.14286,0 H 12.857143 C 5.7589286,0 0,5.758929 0,12.857143 V 107.14286 C 0,114.24107 5.7589286,120 12.857143,120 H 107.14286 C 114.24107,120 120,114.24107 120,107.14286 V 12.857143 C 120,5.758929 114.24107,0 107.14286,0 Z m -8.571431,67.5 c 0,1.76786 -1.446429,3.21429 -3.214286,3.21429 H 70.714286 v 24.64285 c 0,1.76786 -1.446429,3.21429 -3.214286,3.21429 h -15 c -1.767857,0 -3.214286,-1.44643 -3.214286,-3.21429 V 70.71429 H 24.642857 c -1.767857,0 -3.214286,-1.44643 -3.214286,-3.21429 v -15 c 0,-1.767857 1.446429,-3.214286 3.214286,-3.214286 H 49.285714 V 24.642857 c 0,-1.767857 1.446429,-3.214286 3.214286,-3.214286 h 15 c 1.767857,0 3.214286,1.446429 3.214286,3.214286 v 24.642857 h 24.642857 c 1.767857,0 3.214286,1.446429 3.214286,3.214286 z"></path></svg>