<svg xmlns="http://www.w3.org/2000/svg" viewBox="0 0 25 25" height="25" width="25"><title>health.svg</title><rect fill="none" x="0" y="0" width="25" height="25"></rect><rect x="0" y="0" width="25" height="25" rx="1.5" ry="1.5" fill="#ffffff"></rect><path fill="#aa186d" transform="translate(3 3)" d="M 15.392858,2 H 3.6071429 C 2.7198661,2 2,2.7198661 2,3.6071429 V 15.392858 C 2,16.280134 2.7198661,17 3.6071429,17 H 15.392858 C 16.280134,17 17,16.280134 17,15.392858 V 3.6071429 C 17,2.7198661 16.280134,2 15.392858,2 Z m -1.071429,8.4375 c 0,0.220983 -0.180804,0.401786 -0.401786,0.401786 h -3.080357 v 3.080357 c 0,0.220982 -0.180804,0.401786 -0.401786,0.401786 h -1.875 c -0.2209821,0 -0.4017858,-0.180804 -0.4017858,-0.401786 V 10.839286 H 5.0803571 c -0.2209821,0 -0.4017857,-0.180803 -0.4017857,-0.401786 v -1.875 c 0,-0.2209821 0.1808036,-0.4017858 0.4017857,-0.4017858 H 8.1607142 V 5.0803571 c 0,-0.2209821 0.1808037,-0.4017857 0.4017858,-0.4017857 h 1.875 c 0.220982,0 0.401786,0.1808036 0.401786,0.4017857 v 3.0803571 h 3.080357 c 0.220982,0 0.401786,0.1808037 0.401786,0.4017858 z"></path></svg>