<svg xmlns="http://www.w3.org/2000/svg" viewBox="0 0 25 25" height="25" width="25"><title>leisure.svg</title><rect fill="none" x="0" y="0" width="25" height="25"></rect><rect x="0" y="0" width="25" height="25" rx="1.5" ry="1.5" fill="#ffffff"></rect><path fill="#aa186d" transform="translate(3 3)" d="M 6.8483033,9.2456128 C 6.0073723,9.4905328 5.4432358,10.211231 5.4999539,10.982319 5.7671397,10.684196 6.1751833,10.426854 6.6694766,10.257636 Z M 4.2455886,10.413963 3.5019222,6.2067288 c -0.0068,-0.03797 0.00656,-0.06141 0.00562,-0.06211 1.3537397,-0.751401 2.8856034,-1.148664 4.4298885,-1.148664 0.037734,0 0.075702,0.004 0.113671,0.0045 0.3269508,-0.3157 0.7436662,-0.535074 1.2091315,-0.60937 0.4427311,-0.07078 0.8917898,-0.10664 1.3401458,-0.124687 -0.234139,-0.32695 -0.573745,-0.567886 -0.9789766,-0.632807 -0.5603865,-0.0893 -1.1235852,-0.133593 -1.6842061,-0.133593 -1.7967051,0 -3.5695043,0.455153 -5.1590236,1.337334 -0.5664801,0.314528 -0.8699934,0.970774 -0.7535099,1.629362 l 0.7436663,4.2072342 c 0.3335131,1.887174 3.1952103,3.329975 4.7917608,3.329975 0.08414,0 0.158202,-0.01078 0.2346076,-0.01875 C 7.4778299,13.584799 7.1164262,13.036366 6.868928,12.401214 5.7530772,12.096998 4.3831656,11.191379 4.2455886,10.413963 Z M 6.5318994,7.1922688 c -0.017109,-0.09656 -0.052265,-0.184452 -0.09539,-0.267186 -0.1933581,0.208827 -0.4844496,0.369138 -0.8278062,0.429372 -0.3433571,0.06047 -0.6719482,0.0094 -0.9253057,-0.121171 -0.012188,0.09234 -0.015,0.18703 0.00211,0.283592 0.089999,0.50859 0.5760897,0.848197 1.0860858,0.758666 0.5097614,-0.08953 0.8503061,-0.574683 0.7603061,-1.083273 z M 16.221827,6.3335248 C 14.136373,5.1761898 11.73522,4.7536148 9.3785967,5.1300188 8.7385236,5.2322058 8.228293,5.7454828 8.1120438,6.4040718 L 7.3683776,10.611306 c -0.3607005,2.040219 2.2331082,4.600043 3.7103624,4.859729 1.477254,0.25992 4.792229,-1.260694 5.15293,-3.300913 l 0.743667,-4.2072342 c 0.116483,-0.658823 -0.18703,-1.315068 -0.75351,-1.629363 z m -6.4040148,2.268733 c 0.09,-0.50859 0.5760888,-0.848197 1.0860858,-0.758431 0.509996,0.08976 0.850306,0.574683 0.760541,1.083273 -0.01711,0.09656 -0.05227,0.184451 -0.09539,0.267185 -0.193358,-0.208826 -0.484449,-0.369138 -0.827806,-0.429372 -0.343357,-0.06047 -0.671948,-0.0094 -0.9253058,0.121171 -0.012421,-0.09258 -0.015234,-0.187264 0.00188,-0.283826 z M 11.46944,13.260661 c -1.30499,-0.229452 -2.1918581,-1.38913 -2.086859,-2.646074 0.482809,0.598589 1.317412,1.082101 2.33178,1.260459 1.014367,0.178358 1.964515,0.0087 2.623338,-0.389059 -0.332341,1.217334 -1.563503,2.004125 -2.868259,1.774674 z m 3.053884,-3.5470052 c -0.193359,-0.208826 -0.484685,-0.369138 -0.828041,-0.429372 -0.343357,-0.06047 -0.671948,-0.0094 -0.925306,0.121171 -0.01219,-0.09234 -0.015,-0.187029 0.0021,-0.283591 0.09,-0.50859 0.576089,-0.848197 1.086086,-0.758666 0.509761,0.08976 0.850305,0.574683 0.76054,1.083273 -0.01711,0.0968 -0.05227,0.184686 -0.09539,0.267185 z"></path></svg>