<svg xmlns="http://www.w3.org/2000/svg" viewBox="0 0 136 136" height="136" width="136"><title>leisure.svg</title><rect fill="none" x="0" y="0" width="136" height="136"></rect><rect x="0" y="0" width="136" height="136" rx="5" ry="5" fill="#ffffff"></rect><path fill="#aa186d" transform="translate(8 8)" d="m 38.786408,57.442863 c -6.727448,1.959361 -11.24054,7.724942 -10.786795,13.893647 2.137486,-2.384983 5.401835,-4.443717 9.356182,-5.797458 z M 17.96469,66.789668 12.015359,33.131795 c -0.05437,-0.303747 0.0525,-0.491246 0.045,-0.49687 10.829918,-6.011206 23.084828,-9.189307 35.439109,-9.189307 0.301872,0 0.60562,0.03187 0.909368,0.03562 2.615606,-2.525601 5.94933,-4.280588 9.673052,-4.874959 3.541849,-0.566245 7.134321,-0.853118 10.72117,-0.997492 -1.873111,-2.615605 -4.589964,-4.543091 -7.831816,-5.062462 -4.483092,-0.71437 -8.988682,-1.068742 -13.473649,-1.068742 -14.373642,0 -28.556036,3.641223 -41.27219,10.69867 -4.531841,2.51623 -6.95994776,7.766192 -6.02807977,13.034902 L 6.1466537,68.869027 c 2.6681049,15.097387 25.5616833,26.6398 38.3340873,26.6398 0.673121,0 1.265616,-0.08625 1.876861,-0.149997 C 43.822621,92.156353 40.931392,87.768886 38.951406,82.687673 30.024599,80.253942 19.065306,73.008996 17.96469,66.789668 Z M 36.255177,41.016113 c -0.136872,-0.772496 -0.418122,-1.475616 -0.763118,-2.137486 -1.546865,1.670613 -3.875597,2.953104 -6.62245,3.434974 -2.746857,0.483748 -5.375586,0.075 -7.402446,-0.969368 -0.0975,0.738745 -0.119998,1.496241 0.01687,2.268734 0.719995,4.068719 4.608717,6.785575 8.688686,6.06933 4.078092,-0.716245 6.802449,-4.597465 6.082453,-8.666184 z M 113.7746,34.146163 C 97.090972,24.887482 77.88174,21.506883 59.028756,24.51811 c -5.120585,0.817494 -9.20243,4.923713 -10.132423,10.192423 l -5.94933,33.657873 C 40.061399,84.690159 60.811869,105.16875 72.629905,107.24624 84.447941,109.3256 110.96774,97.160691 113.85335,80.838938 l 5.94933,-33.657872 c 0.93187,-5.270585 -1.49624,-10.520548 -6.02808,-13.034903 z M 62.54248,52.296026 c 0.719996,-4.06872 4.608715,-6.785574 8.688685,-6.067453 4.079969,0.71812 6.802448,4.597465 6.08433,8.666184 -0.136875,0.772495 -0.418123,1.475613 -0.76312,2.137484 -1.546863,-1.670611 -3.875595,-2.953102 -6.622451,-3.434974 -2.746854,-0.483746 -5.375583,-0.075 -7.402444,0.969367 -0.09937,-0.740617 -0.121875,-1.498113 0.015,-2.270608 z M 75.755507,89.563247 C 65.315584,87.727636 58.220638,78.450206 59.060631,68.394656 c 3.862472,4.788715 10.539295,8.65681 18.654237,10.083675 8.114939,1.426864 15.71613,0.06937 20.986715,-3.112476 -2.658729,9.738677 -12.508031,16.033003 -22.946076,14.197392 z M 100.18658,61.18721 c -1.546869,-1.670613 -3.877478,-2.953104 -6.624332,-3.434974 -2.746854,-0.483745 -5.375585,-0.075 -7.402446,0.969368 -0.0975,-0.738745 -0.119998,-1.496238 0.01687,-2.268734 0.719995,-4.068719 4.608717,-6.785573 8.688687,-6.069328 4.078094,0.718118 6.802441,4.597465 6.084321,8.666185 -0.13687,0.774368 -0.41812,1.477488 -0.76311,2.137483 z"></path></svg>