<svg xmlns="http://www.w3.org/2000/svg" viewBox="0 0 136 136" height="136" width="136"><title>ov.svg</title><rect fill="none" x="0" y="0" width="136" height="136"></rect><rect x="0" y="0" width="136" height="136" rx="5" ry="5" fill="#ffffff"></rect><path fill="#aa186d" transform="translate(8 8)" d="M 114.375,30 H 112.5 V 18.75 C 112.5,8.25 89.25,0 60,0 30.75,0 7.5,8.25 7.5,18.75 V 30 H 5.625 C 2.5195313,30 0,32.517188 0,35.625 v 18.75 C 0,57.480469 2.5195313,60 5.625,60 H 7.5 v 37.5 c 0,4.14141 3.358594,7.5 7.5,7.5 v 7.5 c 0,4.14141 3.358594,7.5 7.5,7.5 H 30 c 4.141406,0 7.5,-3.35859 7.5,-7.5 V 105 h 45 v 7.5 c 0,4.14141 3.358594,7.5 7.5,7.5 h 7.5 c 4.14141,0 7.5,-3.35859 7.5,-7.5 V 105 h 1.5 c 3.75,0 6,-3 6,-6 V 60 h 1.875 C 117.48047,60 120,57.480469 120,54.375 V 35.625 C 120,32.517188 117.48047,30 114.375,30 Z M 26.25,93.75 c -4.141406,0 -7.5,-3.358594 -7.5,-7.5 0,-4.141406 3.358594,-7.5 7.5,-7.5 4.141406,0 7.5,3.358594 7.5,7.5 0,4.141406 -3.358594,7.5 -7.5,7.5 z M 30,67.5 c -4.141406,0 -7.5,-3.358594 -7.5,-7.5 V 30 c 0,-4.141406 3.358594,-7.5 7.5,-7.5 h 60 c 4.141406,0 7.5,3.358594 7.5,7.5 v 30 c 0,4.141406 -3.358594,7.5 -7.5,7.5 z m 63.75,26.25 c -4.141406,0 -7.5,-3.358594 -7.5,-7.5 0,-4.141406 3.358594,-7.5 7.5,-7.5 4.141406,0 7.5,3.358594 7.5,7.5 0,4.141406 -3.358594,7.5 -7.5,7.5 z"></path></svg>