<svg xmlns="http://www.w3.org/2000/svg" viewBox="0 0 25 25" height="25" width="25"><title>ov.svg</title><rect fill="none" x="0" y="0" width="25" height="25"></rect><rect x="0" y="0" width="25" height="25" rx="1.5" ry="1.5" fill="#ffffff"></rect><path fill="#aa186d" transform="translate(3 3)" d="M 16.296875,5.75 H 16.0625 V 4.34375 C 16.0625,3.03125 13.15625,2 9.5,2 5.84375,2 2.9375,3.03125 2.9375,4.34375 V 5.75 H 2.703125 C 2.3149414,5.75 2,6.0646485 2,6.453125 v 2.34375 C 2,9.1850586 2.3149414,9.5 2.703125,9.5 H 2.9375 v 4.6875 c 0,0.517676 0.4198242,0.9375 0.9375,0.9375 v 0.9375 C 3.875,16.580176 4.2948243,17 4.8125,17 H 5.75 c 0.5176758,0 0.9375,-0.419824 0.9375,-0.9375 V 15.125 h 5.625 v 0.9375 C 12.3125,16.580176 12.732324,17 13.25,17 h 0.9375 c 0.517676,0 0.9375,-0.419824 0.9375,-0.9375 V 15.125 h 0.1875 c 0.46875,0 0.75,-0.375 0.75,-0.75 V 9.5 h 0.234375 C 16.685059,9.5 17,9.1850586 17,8.796875 V 6.453125 C 17,6.0646485 16.685059,5.75 16.296875,5.75 Z M 5.28125,13.71875 c -0.5176757,0 -0.9375,-0.419824 -0.9375,-0.9375 0,-0.517676 0.4198243,-0.9375 0.9375,-0.9375 0.5176758,0 0.9375,0.419824 0.9375,0.9375 0,0.517676 -0.4198242,0.9375 -0.9375,0.9375 z M 5.75,10.4375 C 5.2323243,10.4375 4.8125,10.017676 4.8125,9.5 V 5.75 c 0,-0.5176757 0.4198243,-0.9375 0.9375,-0.9375 h 7.5 c 0.517676,0 0.9375,0.4198243 0.9375,0.9375 V 9.5 c 0,0.517676 -0.419824,0.9375 -0.9375,0.9375 z m 7.96875,3.28125 c -0.517676,0 -0.9375,-0.419824 -0.9375,-0.9375 0,-0.517676 0.419824,-0.9375 0.9375,-0.9375 0.517676,0 0.9375,0.419824 0.9375,0.9375 0,0.517676 -0.419824,0.9375 -0.9375,0.9375 z"></path></svg>