<svg xmlns="http://www.w3.org/2000/svg" viewBox="0 0 136 136" height="136" width="136"><title>shopping.svg</title><rect fill="none" x="0" y="0" width="136" height="136"></rect><rect x="0" y="0" width="136" height="136" rx="5" ry="5" fill="#ffffff"></rect><path fill="#aa186d" transform="translate(8 8)" d="m 90.484405,38.498051 v -7.5 c 0,-16.542187 -13.458047,-30.00000032 -30,-30.00000032 -16.542188,0 -30,13.45781332 -30,30.00000032 v 7.5 H 7.9844055 v 63.749999 c 0,10.35539 8.3946095,18.75 18.7499995,18.75 h 67.5 c 10.355395,0 18.750005,-8.39461 18.750005,-18.75 V 38.498051 Z m -45,-7.5 c 0,-8.271094 6.728906,-15 15,-15 8.271094,0 15,6.728906 15,15 v 7.5 h -30 z m 37.5,28.125 c -3.106641,0 -5.625,-2.518359 -5.625,-5.625 0,-3.106641 2.518359,-5.625 5.625,-5.625 3.106641,0 5.625,2.518359 5.625,5.625 0,3.106641 -2.518359,5.625 -5.625,5.625 z m -45,0 c -3.106641,0 -5.625,-2.518359 -5.625,-5.625 0,-3.106641 2.518359,-5.625 5.625,-5.625 3.106641,0 5.625,2.518359 5.625,5.625 0,3.106641 -2.518359,5.625 -5.625,5.625 z"></path></svg>