<svg xmlns="http://www.w3.org/2000/svg" viewBox="0 0 25 25" height="25" width="25"><title>shopping.svg</title><rect fill="none" x="0" y="0" width="25" height="25"></rect><rect x="0" y="0" width="25" height="25" rx="1.5" ry="1.5" fill="#ffffff"></rect><path fill="#aa186d" transform="translate(3 3)" d="m 13.249999,6.6874997 v -0.9375 c 0,-2.0677733 -1.682255,-3.75 -3.7499995,-3.75 -2.067773,0 -3.75,1.6822267 -3.75,3.75 v 0.9375 H 2.9375 V 14.65625 C 2.9375,15.950673 3.9868262,17 5.2812495,17 H 13.718749 C 15.013174,17 16.0625,15.950673 16.0625,14.65625 V 6.6874997 Z m -5.6249995,-0.9375 c 0,-1.0338867 0.841114,-1.875 1.875,-1.875 1.0338865,0 1.8749995,0.8411133 1.8749995,1.875 v 0.9375 H 7.6249995 Z m 4.6874995,3.5156251 c -0.38833,0 -0.703125,-0.3147949 -0.703125,-0.703125 0,-0.3883302 0.314795,-0.703125 0.703125,-0.703125 0.388331,0 0.703125,0.3147948 0.703125,0.703125 0,0.3883301 -0.314794,0.703125 -0.703125,0.703125 z m -5.6249995,0 c -0.38833,0 -0.703125,-0.3147949 -0.703125,-0.703125 0,-0.3883302 0.314795,-0.703125 0.703125,-0.703125 0.388331,0 0.703125,0.3147948 0.703125,0.703125 0,0.3883301 -0.314794,0.703125 -0.703125,0.703125 z"></path></svg>